<svg id="visual" viewBox="0 0 960 540" width="960" height="540" xmlns="http://www.w3.org/2000/svg" xmlns:xlink="http://www.w3.org/1999/xlink" version="1.1"><rect x="0" y="0" width="960" height="540" fill="#24005f"></rect><defs><linearGradient id="grad1_0" x1="43.8%" y1="0%" x2="100%" y2="100%"><stop offset="14.444444444444446%" stop-color="#4800be" stop-opacity="1"></stop><stop offset="85.55555555555554%" stop-color="#4800be" stop-opacity="1"></stop></linearGradient></defs><defs><linearGradient id="grad1_1" x1="43.8%" y1="0%" x2="100%" y2="100%"><stop offset="14.444444444444446%" stop-color="#4800be" stop-opacity="1"></stop><stop offset="85.55555555555554%" stop-color="#3c009d" stop-opacity="1"></stop></linearGradient></defs><defs><linearGradient id="grad1_2" x1="43.8%" y1="0%" x2="100%" y2="100%"><stop offset="14.444444444444446%" stop-color="#30007d" stop-opacity="1"></stop><stop offset="85.55555555555554%" stop-color="#3c009d" stop-opacity="1"></stop></linearGradient></defs><defs><linearGradient id="grad1_3" x1="43.8%" y1="0%" x2="100%" y2="100%"><stop offset="14.444444444444446%" stop-color="#30007d" stop-opacity="1"></stop><stop offset="85.55555555555554%" stop-color="#24005f" stop-opacity="1"></stop></linearGradient></defs><defs><linearGradient id="grad2_0" x1="0%" y1="0%" x2="56.3%" y2="100%"><stop offset="14.444444444444446%" stop-color="#4800be" stop-opacity="1"></stop><stop offset="85.55555555555554%" stop-color="#4800be" stop-opacity="1"></stop></linearGradient></defs><defs><linearGradient id="grad2_1" x1="0%" y1="0%" x2="56.3%" y2="100%"><stop offset="14.444444444444446%" stop-color="#3c009d" stop-opacity="1"></stop><stop offset="85.55555555555554%" stop-color="#4800be" stop-opacity="1"></stop></linearGradient></defs><defs><linearGradient id="grad2_2" x1="0%" y1="0%" x2="56.3%" y2="100%"><stop offset="14.444444444444446%" stop-color="#3c009d" stop-opacity="1"></stop><stop offset="85.55555555555554%" stop-color="#30007d" stop-opacity="1"></stop></linearGradient></defs><defs><linearGradient id="grad2_3" x1="0%" y1="0%" x2="56.3%" y2="100%"><stop offset="14.444444444444446%" stop-color="#24005f" stop-opacity="1"></stop><stop offset="85.55555555555554%" stop-color="#30007d" stop-opacity="1"></stop></linearGradient></defs><g transform="translate(960, 0)"><path d="M0 486C-53.6 452.7 -107.2 419.4 -164.9 398.2C-222.6 377 -284.4 368 -335.2 335.2C-385.9 302.4 -425.7 245.8 -449 186C-472.3 126.2 -479.2 63.1 -486 0L0 0Z" fill="#2a006e"></path><path d="M0 364.5C-40.2 339.5 -80.4 314.5 -123.7 298.6C-167 282.8 -213.3 276 -251.4 251.4C-289.5 226.8 -319.3 184.4 -336.8 139.5C-354.2 94.6 -359.4 47.3 -364.5 0L0 0Z" fill="#36008d"></path><path d="M0 243C-26.8 226.3 -53.6 209.7 -82.5 199.1C-111.3 188.5 -142.2 184 -167.6 167.6C-193 151.2 -212.9 122.9 -224.5 93C-236.2 63.1 -239.6 31.5 -243 0L0 0Z" fill="#4200ad"></path><path d="M0 121.5C-13.4 113.2 -26.8 104.8 -41.2 99.5C-55.7 94.3 -71.1 92 -83.8 83.8C-96.5 75.6 -106.4 61.5 -112.3 46.5C-118.1 31.5 -119.8 15.8 -121.5 0L0 0Z" fill="#4800be"></path></g><g transform="translate(0, 540)"><path d="M0 -486C63.1 -478 126.2 -470.1 185.6 -448.1C245 -426.1 300.6 -390 343.7 -343.7C386.7 -297.3 417.2 -240.8 438.8 -181.8C460.5 -122.8 473.2 -61.4 486 0L0 0Z" fill="#2a006e"></path><path d="M0 -364.5C47.3 -358.5 94.7 -352.6 139.2 -336.1C183.7 -319.5 225.4 -292.5 257.7 -257.7C290 -223 312.9 -180.6 329.1 -136.3C345.4 -92.1 354.9 -46 364.5 0L0 0Z" fill="#36008d"></path><path d="M0 -243C31.6 -239 63.1 -235 92.8 -224C122.5 -213 150.3 -195 171.8 -171.8C193.4 -148.7 208.6 -120.4 219.4 -90.9C230.2 -61.4 236.6 -30.7 243 0L0 0Z" fill="#4200ad"></path><path d="M0 -121.5C15.8 -119.5 31.6 -117.5 46.4 -112C61.2 -106.5 75.1 -97.5 85.9 -85.9C96.7 -74.3 104.3 -60.2 109.7 -45.4C115.1 -30.7 118.3 -15.3 121.5 0L0 0Z" fill="#4800be"></path></g></svg>