<svg id="visual" viewBox="0 0 960 540" width="960" height="540" xmlns="http://www.w3.org/2000/svg" xmlns:xlink="http://www.w3.org/1999/xlink" version="1.1"><rect x="0" y="0" width="960" height="540" fill="#F7770F"></rect><defs><linearGradient id="grad1_0" x1="43.8%" y1="0%" x2="100%" y2="100%"><stop offset="14.444444444444446%" stop-color="#f7770f" stop-opacity="1"></stop><stop offset="85.55555555555554%" stop-color="#f7770f" stop-opacity="1"></stop></linearGradient></defs><defs><linearGradient id="grad2_0" x1="0%" y1="0%" x2="56.3%" y2="100%"><stop offset="14.444444444444446%" stop-color="#f7770f" stop-opacity="1"></stop><stop offset="85.55555555555554%" stop-color="#f7770f" stop-opacity="1"></stop></linearGradient></defs><g transform="translate(960, 0)"><path d="M0 486C-49.7 448.7 -99.4 411.4 -163.4 394.5C-227.4 377.6 -305.7 381 -343.7 343.7C-381.6 306.3 -379.3 228.2 -396.3 164.2C-413.4 100.1 -449.7 50.1 -486 0L0 0Z" fill="#4800BE"></path></g><g transform="translate(0, 540)"><path d="M0 -486C63 -475.6 125.9 -465.3 182.9 -441.6C239.9 -417.9 291 -380.9 337.3 -337.3C383.6 -293.6 425 -243.3 449 -186C473 -128.7 479.5 -64.3 486 0L0 0Z" fill="#4800BE"></path></g></svg>