<svg id="visual" viewBox="0 0 960 540" width="960" height="540" xmlns="http://www.w3.org/2000/svg" xmlns:xlink="http://www.w3.org/1999/xlink" version="1.1"><rect x="0" y="0" width="960" height="540" fill="#23005c"></rect><defs><linearGradient id="grad1_0" x1="43.8%" y1="0%" x2="100%" y2="100%"><stop offset="14.444444444444446%" stop-color="#5200d7" stop-opacity="1"></stop><stop offset="85.55555555555554%" stop-color="#5200d7" stop-opacity="1"></stop></linearGradient></defs><defs><linearGradient id="grad1_1" x1="43.8%" y1="0%" x2="100%" y2="100%"><stop offset="14.444444444444446%" stop-color="#5200d7" stop-opacity="1"></stop><stop offset="85.55555555555554%" stop-color="#4600b6" stop-opacity="1"></stop></linearGradient></defs><defs><linearGradient id="grad1_2" x1="43.8%" y1="0%" x2="100%" y2="100%"><stop offset="14.444444444444446%" stop-color="#3a0097" stop-opacity="1"></stop><stop offset="85.55555555555554%" stop-color="#4600b6" stop-opacity="1"></stop></linearGradient></defs><defs><linearGradient id="grad1_3" x1="43.8%" y1="0%" x2="100%" y2="100%"><stop offset="14.444444444444446%" stop-color="#3a0097" stop-opacity="1"></stop><stop offset="85.55555555555554%" stop-color="#2f0079" stop-opacity="1"></stop></linearGradient></defs><defs><linearGradient id="grad1_4" x1="43.8%" y1="0%" x2="100%" y2="100%"><stop offset="14.444444444444446%" stop-color="#23005c" stop-opacity="1"></stop><stop offset="85.55555555555554%" stop-color="#2f0079" stop-opacity="1"></stop></linearGradient></defs><defs><linearGradient id="grad2_0" x1="0%" y1="0%" x2="56.3%" y2="100%"><stop offset="14.444444444444446%" stop-color="#5200d7" stop-opacity="1"></stop><stop offset="85.55555555555554%" stop-color="#5200d7" stop-opacity="1"></stop></linearGradient></defs><defs><linearGradient id="grad2_1" x1="0%" y1="0%" x2="56.3%" y2="100%"><stop offset="14.444444444444446%" stop-color="#4600b6" stop-opacity="1"></stop><stop offset="85.55555555555554%" stop-color="#5200d7" stop-opacity="1"></stop></linearGradient></defs><defs><linearGradient id="grad2_2" x1="0%" y1="0%" x2="56.3%" y2="100%"><stop offset="14.444444444444446%" stop-color="#4600b6" stop-opacity="1"></stop><stop offset="85.55555555555554%" stop-color="#3a0097" stop-opacity="1"></stop></linearGradient></defs><defs><linearGradient id="grad2_3" x1="0%" y1="0%" x2="56.3%" y2="100%"><stop offset="14.444444444444446%" stop-color="#2f0079" stop-opacity="1"></stop><stop offset="85.55555555555554%" stop-color="#3a0097" stop-opacity="1"></stop></linearGradient></defs><defs><linearGradient id="grad2_4" x1="0%" y1="0%" x2="56.3%" y2="100%"><stop offset="14.444444444444446%" stop-color="#2f0079" stop-opacity="1"></stop><stop offset="85.55555555555554%" stop-color="#23005c" stop-opacity="1"></stop></linearGradient></defs><g transform="translate(960, 0)"><path d="M0 459C-34.5 457.1 -69 455.1 -102.1 447.5C-135.2 439.9 -166.9 426.6 -198.3 411.7C-229.7 396.9 -260.7 380.6 -283.7 355.7C-306.7 330.8 -321.6 297.4 -334.6 266.9C-347.7 236.4 -358.8 208.8 -379.3 182.7C-399.8 156.5 -429.7 131.7 -444.6 101.5C-459.4 71.3 -459.2 35.6 -459 0L0 0Z" fill="#29006a"></path><path d="M0 367.2C-27.6 365.6 -55.2 364.1 -81.7 358C-108.2 351.9 -133.5 341.2 -158.6 329.4C-183.7 317.5 -208.6 304.5 -227 284.6C-245.3 264.7 -257.3 237.9 -267.7 213.5C-278.1 189.1 -287 167.1 -303.4 146.1C-319.9 125.2 -343.8 105.4 -355.7 81.2C-367.5 57 -367.4 28.5 -367.2 0L0 0Z" fill="#350088"></path><path d="M0 275.4C-20.7 274.2 -41.4 273.1 -61.3 268.5C-81.1 263.9 -100.2 255.9 -119 247C-137.8 238.2 -156.4 228.4 -170.2 213.4C-184 198.5 -193 178.4 -200.8 160.1C-208.6 141.8 -215.3 125.3 -227.6 109.6C-239.9 93.9 -257.8 79 -266.7 60.9C-275.6 42.8 -275.5 21.4 -275.4 0L0 0Z" fill="#4000a7"></path><path d="M0 183.6C-13.8 182.8 -27.6 182 -40.9 179C-54.1 175.9 -66.8 170.6 -79.3 164.7C-91.9 158.8 -104.3 152.3 -113.5 142.3C-122.7 132.3 -128.6 118.9 -133.8 106.7C-139.1 94.5 -143.5 83.5 -151.7 73.1C-159.9 62.6 -171.9 52.7 -177.8 40.6C-183.8 28.5 -183.7 14.3 -183.6 0L0 0Z" fill="#4c00c7"></path><path d="M0 91.8C-6.9 91.4 -13.8 91 -20.4 89.5C-27 88 -33.4 85.3 -39.7 82.3C-45.9 79.4 -52.1 76.1 -56.7 71.1C-61.3 66.2 -64.3 59.5 -66.9 53.4C-69.5 47.3 -71.8 41.8 -75.9 36.5C-80 31.3 -85.9 26.3 -88.9 20.3C-91.9 14.3 -91.8 7.1 -91.8 0L0 0Z" fill="#5200d7"></path></g><g transform="translate(0, 540)"><path d="M0 -459C31.7 -444.4 63.4 -429.8 96.4 -422.1C129.3 -414.5 163.3 -413.8 194.4 -403.6C225.4 -393.4 253.4 -373.7 281.2 -352.6C309 -331.6 336.5 -309.2 351 -279.9C365.6 -250.7 367.1 -214.5 383.8 -184.8C400.5 -155.1 432.4 -131.9 447.5 -102.1C462.6 -72.4 460.8 -36.2 459 0L0 0Z" fill="#29006a"></path><path d="M0 -367.2C25.4 -355.5 50.8 -343.8 77.1 -337.7C103.4 -331.6 130.7 -331.1 155.5 -322.9C180.3 -314.7 202.7 -298.9 225 -282.1C247.2 -265.2 269.2 -247.4 280.8 -224C292.5 -200.6 293.7 -171.6 307.1 -147.9C320.4 -124.1 345.9 -105.5 358 -81.7C370 -57.9 368.6 -29 367.2 0L0 0Z" fill="#350088"></path><path d="M0 -275.4C19 -266.6 38.1 -257.9 57.8 -253.3C77.6 -248.7 98 -248.3 116.6 -242.2C135.3 -236.1 152.1 -224.2 168.7 -211.6C185.4 -198.9 201.9 -185.5 210.6 -168C219.3 -150.4 220.3 -128.7 230.3 -110.9C240.3 -93.1 259.5 -79.1 268.5 -61.3C277.5 -43.4 276.5 -21.7 275.4 0L0 0Z" fill="#4000a7"></path><path d="M0 -183.6C12.7 -177.8 25.4 -171.9 38.5 -168.9C51.7 -165.8 65.3 -165.5 77.8 -161.5C90.2 -157.4 101.4 -149.5 112.5 -141C123.6 -132.6 134.6 -123.7 140.4 -112C146.2 -100.3 146.8 -85.8 153.5 -73.9C160.2 -62.1 173 -52.7 179 -40.9C185 -29 184.3 -14.5 183.6 0L0 0Z" fill="#4c00c7"></path><path d="M0 -91.8C6.3 -88.9 12.7 -86 19.3 -84.4C25.9 -82.9 32.7 -82.8 38.9 -80.7C45.1 -78.7 50.7 -74.7 56.2 -70.5C61.8 -66.3 67.3 -61.8 70.2 -56C73.1 -50.1 73.4 -42.9 76.8 -37C80.1 -31 86.5 -26.4 89.5 -20.4C92.5 -14.5 92.2 -7.2 91.8 0L0 0Z" fill="#5200d7"></path></g></svg>