<svg width="17" height="13" viewBox="0 0 17 13" fill="none" xmlns="http://www.w3.org/2000/svg">
<path d="M1.74316 0.2512C1.42773 -0.0162001 0.986132 -0.0771255 0.610937 0.102268C0.235743 0.281663 0 0.664145 0 1.08386V11.9152C0 12.3349 0.239061 12.7174 0.610937 12.8968C0.982813 13.0762 1.42441 13.0187 1.74316 12.7479L7.4375 7.911V6.49954V5.08808L1.74316 0.2512ZM8.5 3.25013V6.49954V10.8321V11.9152C8.5 12.3349 8.73906 12.7174 9.11094 12.8968C9.48281 13.0762 9.92441 13.0187 10.2432 12.7479L16.6182 7.3322C16.8605 7.12573 17 6.82109 17 6.49954C17 6.17798 16.8605 5.87335 16.6182 5.66688L10.2432 0.2512C9.92773 -0.0162001 9.48613 -0.0771255 9.11094 0.102268C8.73574 0.281663 8.5 0.664145 8.5 1.08386V3.25013Z" fill="black"/>
</svg>
