<svg width="99" height="99" viewBox="0 0 99 99" fill="none" xmlns="http://www.w3.org/2000/svg">
<path d="M96.5057 1.22848C98.0719 2.38851 99 4.24456 99 6.19729V20.1177V71.1592C99 79.7048 90.6855 86.6263 80.4375 86.6263C70.1895 86.6263 61.875 79.7048 61.875 71.1592C61.875 62.6136 70.1895 55.6921 80.4375 55.6921C82.6031 55.6921 84.6914 56.0014 86.625 56.5814V28.4313L37.125 43.2797V83.5329C37.125 92.0785 28.8105 99 18.5625 99C8.31445 99 0 92.0785 0 83.5329C0 74.9873 8.31445 68.0658 18.5625 68.0658C20.7281 68.0658 22.8164 68.3751 24.75 68.9551V38.6782V24.7578C24.75 22.0317 26.5482 19.615 29.1586 18.8223L91.0336 0.261782C92.9092 -0.298901 94.9395 0.049109 96.5057 1.22848Z" fill="white"/>
</svg>
