<svg width="38" height="38" viewBox="0 0 38 38" fill="none" xmlns="http://www.w3.org/2000/svg">
<path d="M30.875 15.4375C30.875 18.8441 29.7691 21.991 27.9062 24.5441L37.3023 33.9477C38.2301 34.8754 38.2301 36.382 37.3023 37.3098C36.3746 38.2375 34.868 38.2375 33.9402 37.3098L24.5441 27.9062C21.991 29.7766 18.8441 30.875 15.4375 30.875C6.90977 30.875 0 23.9652 0 15.4375C0 6.90977 6.90977 0 15.4375 0C23.9652 0 30.875 6.90977 30.875 15.4375ZM15.4375 26.125C16.841 26.125 18.2308 25.8486 19.5274 25.3115C20.8241 24.7744 22.0023 23.9871 22.9947 22.9947C23.9871 22.0023 24.7744 20.8241 25.3115 19.5274C25.8486 18.2308 26.125 16.841 26.125 15.4375C26.125 14.034 25.8486 12.6442 25.3115 11.3476C24.7744 10.0509 23.9871 8.87272 22.9947 7.8803C22.0023 6.88787 20.8241 6.10063 19.5274 5.56354C18.2308 5.02644 16.841 4.75 15.4375 4.75C14.034 4.75 12.6442 5.02644 11.3476 5.56354C10.0509 6.10063 8.87272 6.88787 7.8803 7.8803C6.88787 8.87272 6.10063 10.0509 5.56354 11.3476C5.02644 12.6442 4.75 14.034 4.75 15.4375C4.75 16.841 5.02644 18.2308 5.56354 19.5274C6.10063 20.8241 6.88787 22.0023 7.8803 22.9947C8.87272 23.9871 10.0509 24.7744 11.3476 25.3115C12.6442 25.8486 14.034 26.125 15.4375 26.125Z" fill="black"/>
</svg>
