<svg id="visual" viewBox="0 0 900 600" width="900" height="600" xmlns="http://www.w3.org/2000/svg" xmlns:xlink="http://www.w3.org/1999/xlink" version="1.1"><rect x="0" y="0" width="900" height="600" fill="#23005C"></rect><defs><linearGradient id="grad1_0" x1="33.3%" y1="0%" x2="100%" y2="100%"><stop offset="20%" stop-color="#5200d7" stop-opacity="1"></stop><stop offset="80%" stop-color="#5200d7" stop-opacity="1"></stop></linearGradient></defs><defs><linearGradient id="grad1_1" x1="33.3%" y1="0%" x2="100%" y2="100%"><stop offset="20%" stop-color="#5200d7" stop-opacity="1"></stop><stop offset="80%" stop-color="#4600b6" stop-opacity="1"></stop></linearGradient></defs><defs><linearGradient id="grad1_2" x1="33.3%" y1="0%" x2="100%" y2="100%"><stop offset="20%" stop-color="#3a0097" stop-opacity="1"></stop><stop offset="80%" stop-color="#4600b6" stop-opacity="1"></stop></linearGradient></defs><defs><linearGradient id="grad1_3" x1="33.3%" y1="0%" x2="100%" y2="100%"><stop offset="20%" stop-color="#3a0097" stop-opacity="1"></stop><stop offset="80%" stop-color="#2f0079" stop-opacity="1"></stop></linearGradient></defs><defs><linearGradient id="grad1_4" x1="33.3%" y1="0%" x2="100%" y2="100%"><stop offset="20%" stop-color="#23005c" stop-opacity="1"></stop><stop offset="80%" stop-color="#2f0079" stop-opacity="1"></stop></linearGradient></defs><defs><linearGradient id="grad2_0" x1="0%" y1="0%" x2="66.7%" y2="100%"><stop offset="20%" stop-color="#5200d7" stop-opacity="1"></stop><stop offset="80%" stop-color="#5200d7" stop-opacity="1"></stop></linearGradient></defs><defs><linearGradient id="grad2_1" x1="0%" y1="0%" x2="66.7%" y2="100%"><stop offset="20%" stop-color="#4600b6" stop-opacity="1"></stop><stop offset="80%" stop-color="#5200d7" stop-opacity="1"></stop></linearGradient></defs><defs><linearGradient id="grad2_2" x1="0%" y1="0%" x2="66.7%" y2="100%"><stop offset="20%" stop-color="#4600b6" stop-opacity="1"></stop><stop offset="80%" stop-color="#3a0097" stop-opacity="1"></stop></linearGradient></defs><defs><linearGradient id="grad2_3" x1="0%" y1="0%" x2="66.7%" y2="100%"><stop offset="20%" stop-color="#2f0079" stop-opacity="1"></stop><stop offset="80%" stop-color="#3a0097" stop-opacity="1"></stop></linearGradient></defs><defs><linearGradient id="grad2_4" x1="0%" y1="0%" x2="66.7%" y2="100%"><stop offset="20%" stop-color="#2f0079" stop-opacity="1"></stop><stop offset="80%" stop-color="#23005c" stop-opacity="1"></stop></linearGradient></defs><g transform="translate(900, 0)"><path d="M0 459.7C-31.4 442.1 -62.7 424.5 -94.8 415.3C-126.9 406.1 -159.7 405.4 -190.9 396.4C-222.1 387.5 -251.6 370.3 -278.1 348.7C-304.5 327.1 -327.9 301.2 -340.1 271.2C-352.3 241.2 -353.4 207.1 -373 179.6C-392.6 152.1 -430.7 131.1 -448.2 102.3C-465.7 73.4 -462.7 36.7 -459.7 0L0 0Z" fill="#29006a"></path><path d="M0 367.8C-25.1 353.7 -50.2 339.6 -75.8 332.3C-101.5 324.9 -127.8 324.3 -152.7 317.1C-177.7 310 -201.3 296.2 -222.5 279C-243.6 261.7 -262.3 241 -272.1 217C-281.9 193 -282.7 165.7 -298.4 143.7C-314.1 121.7 -344.5 104.9 -358.5 81.8C-372.6 58.8 -370.2 29.4 -367.8 0L0 0Z" fill="#350088"></path><path d="M0 275.8C-18.8 265.3 -37.6 254.7 -56.9 249.2C-76.1 243.7 -95.8 243.2 -114.5 237.9C-133.3 232.5 -151 222.2 -166.8 209.2C-182.7 196.3 -196.7 180.7 -204.1 162.7C-211.4 144.7 -212.1 124.3 -223.8 107.8C-235.5 91.3 -258.4 78.7 -268.9 61.4C-279.4 44.1 -277.6 22 -275.8 0L0 0Z" fill="#4000a7"></path><path d="M0 183.9C-12.5 176.8 -25.1 169.8 -37.9 166.1C-50.8 162.5 -63.9 162.2 -76.4 158.6C-88.8 155 -100.7 148.1 -111.2 139.5C-121.8 130.9 -131.1 120.5 -136 108.5C-140.9 96.5 -141.4 82.9 -149.2 71.9C-157 60.8 -172.3 52.5 -179.3 40.9C-186.3 29.4 -185.1 14.7 -183.9 0L0 0Z" fill="#4c00c7"></path><path d="M0 91.9C-6.3 88.4 -12.5 84.9 -19 83.1C-25.4 81.2 -31.9 81.1 -38.2 79.3C-44.4 77.5 -50.3 74.1 -55.6 69.7C-60.9 65.4 -65.6 60.2 -68 54.2C-70.5 48.2 -70.7 41.4 -74.6 35.9C-78.5 30.4 -86.1 26.2 -89.6 20.5C-93.1 14.7 -92.5 7.3 -91.9 0L0 0Z" fill="#5200d7"></path></g><g transform="translate(0, 600)"><path d="M0 -459.7C31.2 -438.9 62.4 -418 92.6 -405.6C122.8 -393.1 152 -389 185.3 -384.7C218.5 -380.4 255.9 -375.8 286.6 -359.4C317.4 -343 341.5 -314.7 353.4 -281.8C365.2 -248.9 364.8 -211.4 374.8 -180.5C384.8 -149.5 405.3 -125.1 421.2 -96.1C437.1 -67.1 448.4 -33.6 459.7 0L0 0Z" fill="#29006a"></path><path d="M0 -367.8C24.9 -351.1 49.9 -334.4 74.1 -324.5C98.2 -314.5 121.6 -311.2 148.2 -307.8C174.8 -304.3 204.7 -300.7 229.3 -287.5C253.9 -274.4 273.2 -251.8 282.7 -225.5C292.2 -199.1 291.8 -169.2 299.8 -144.4C307.8 -119.6 324.2 -100.1 336.9 -76.9C349.6 -53.7 358.7 -26.9 367.8 0L0 0Z" fill="#350088"></path><path d="M0 -275.8C18.7 -263.3 37.4 -250.8 55.5 -243.3C73.7 -235.9 91.2 -233.4 111.2 -230.8C131.1 -228.2 153.5 -225.5 172 -215.6C190.4 -205.8 204.9 -188.8 212 -169.1C219.1 -149.4 218.9 -126.9 224.9 -108.3C230.9 -89.7 243.2 -75.1 252.7 -57.7C262.2 -40.3 269 -20.1 275.8 0L0 0Z" fill="#4000a7"></path><path d="M0 -183.9C12.5 -175.5 24.9 -167.2 37 -162.2C49.1 -157.2 60.8 -155.6 74.1 -153.9C87.4 -152.2 102.4 -150.3 114.6 -143.8C126.9 -137.2 136.6 -125.9 141.4 -112.7C146.1 -99.6 145.9 -84.6 149.9 -72.2C153.9 -59.8 162.1 -50 168.5 -38.5C174.8 -26.9 179.4 -13.4 183.9 0L0 0Z" fill="#4c00c7"></path><path d="M0 -91.9C6.2 -87.8 12.5 -83.6 18.5 -81.1C24.6 -78.6 30.4 -77.8 37.1 -76.9C43.7 -76.1 51.2 -75.2 57.3 -71.9C63.5 -68.6 68.3 -62.9 70.7 -56.4C73 -49.8 73 -42.3 75 -36.1C77 -29.9 81.1 -25 84.2 -19.2C87.4 -13.4 89.7 -6.7 91.9 0L0 0Z" fill="#5200d7"></path></g></svg>