<svg width="24" height="24" viewBox="0 0 24 24" fill="none" xmlns="http://www.w3.org/2000/svg">
<path d="M19.1543 17.7488C19.4883 18.0162 19.9559 18.0771 20.3531 17.8977C20.7504 17.7183 21 17.3359 21 16.9161V6.08479C21 5.66507 20.7469 5.28259 20.3531 5.10319C19.9594 4.9238 19.4918 4.98134 19.1543 5.25212L13.125 10.089V11.5005V12.9119L19.1543 17.7488ZM12 14.7499V11.5005V7.16792V6.08479C12 5.66507 11.7469 5.28259 11.3531 5.10319C10.9594 4.9238 10.4918 4.98134 10.1543 5.25212L3.4043 10.6678C3.14766 10.8743 3 11.1789 3 11.5005C3 11.822 3.14766 12.1267 3.4043 12.3331L10.1543 17.7488C10.4883 18.0162 10.9559 18.0771 11.3531 17.8977C11.7504 17.7183 12 17.3359 12 16.9161V14.7499Z" fill="black"/>
</svg>
